<svg xmlns="http://www.w3.org/2000/svg" width="94" height="98" fill="none"><path fill="url(#a)" fill-rule="evenodd" d="M83.935.71c-1.54-.367-9.77-.462-33.113-.381-2.479.008-8.638-.003-13.687-.025-5.048-.022-9.54-.02-9.981.007-.44.026-3.666.033-7.168.016-8.854-.045-9.71.019-11.7.872-3.384 1.449-5.492 4.339-6.33 8.676-.545 2.817-.382 4.348 2.41 22.635.915 5.998 2.568 19.432 4.134 30.13 3.772 25.773 4.58 28.516 5.479 30.025.42.706 1.673 1.925 2.783 2.708 2.337 1.65 4.315 2.182 7.966 2.14 3.549-.04 14.464-.045 22.43-.01 3.975.018 7.763.013 8.418-.011.655-.024 4.859-.022 9.342.005 6.683.04 8.542-.095 10.324-.747 4.019-1.471 5.974-4.183 6.64-9.208.313-2.375.844-6.142 1.703-12.089.421-2.924 1.024-7.167 2.114-14.87.305-2.148.81-5.703 1.124-7.9.314-2.197.76-5.334.992-6.97a15436.972 15436.972 0 0 1 2.838-19.886c1.697-11.882 1.82-13.225 1.43-15.607-.82-5.004-3.793-8.474-8.148-9.51Z" clip-rule="evenodd"/><path fill="url(#b)" d="M15.59 40.525c-2.082-12.974-2.206-14.06-1.827-16.054.72-2.896 9.958-9.88 19.398 1.369 10.586 10.865 16.834 6.85 30.364 13.504 8.844 4.35 9.99 8.68 10.262 9.295.963 2.174 1.304 4.995 1.088 6.551a4565.57 4565.57 0 0 0-.773 5.594c-.75 5.455-.818 8.964-1.108 11.035-.59 4.212-.638 7.039-.853 8.72-.457 3.56-.304 4.732-3.182 5.756-1.277.454-4.82.618-9.619.56-3.218-.04-6.236-.06-6.706-.046-.47.014-3.19.001-6.044-.03-5.719-.058-13.555-.103-16.103-.09-2.62.01-4.043-.374-5.728-1.554-.8-.56-1.705-1.429-2.01-1.932-.651-1.073-.971-2.859-3.79-21.142-1.17-7.59-2.686-17.28-3.369-21.536Z"/><defs><linearGradient id="a" x1="39.397" x2="62.89" y1="-19.268" y2="91.192" gradientUnits="userSpaceOnUse"><stop stop-color="#41C6FF"/><stop offset="1" stop-color="#1A64FC"/></linearGradient><linearGradient id="b" x1="325.108" x2="282.713" y1="100.033" y2="203.934" gradientUnits="userSpaceOnUse"><stop stop-color="#fff"/><stop offset="1" stop-color="#fff"/></linearGradient></defs></svg>