<svg xmlns="http://www.w3.org/2000/svg" width="90" height="93" fill="none"><path fill="#fff" fill-rule="evenodd" d="M7.094.612c-2.272.841-4.91 3.295-5.992 5.573-1.225 2.58-1.423 6.221-.622 11.45.336 2.186.824 5.454 1.086 7.262.262 1.808.819 5.623 1.237 8.478.418 2.855 1.062 7.293 1.432 9.863.959 6.666 1.958 13.583 2.8 19.379 1.875 12.921 2.36 13.555 3.348 18.501.49 2.449 1.125 4.163 1.484 4.947.776 1.697 1.591 4.015 3.549 5.045 1.416.746 1.526.749 28.084.846 29.31.107 27.934.196 31.055-2.005 2.221-1.566 3.212-3.551 3.832-7.678.807-5.36 1.79-11.689 2.595-16.715 1.302-8.122 2.192-13.79 2.69-17.13.27-1.807.824-5.39 1.234-7.959a2066.12 2066.12 0 0 0 2.61-16.727c.3-1.998.84-4.588.99-5.936.494-4.451.495-4.329.494-6.232-.003-3.053-.117-3.685-.962-5.364C86.793 3.738 84.5 1.592 82.147.697 80.29-.01 79.84-.018 44.464.007 11.865.03 8.521.084 7.094.612Z" clip-rule="evenodd"/><path fill="url(#a)" fill-rule="evenodd" d="M18.986 28.58c-1.608.511-3.478 2.007-4.247 3.396-.87 1.572-1.018 3.792-.462 6.982.233 1.333.572 3.326.754 4.428.181 1.103.567 3.43.857 5.17.29 1.742.737 4.449.993 6.016a8965.54 8965.54 0 0 0 1.94 11.819c1.301 7.88 1.539 9.332 1.879 11.477.2 1.263.57 2.688.822 3.166.546 1.035 1.787 2.107 3.168 2.736 1 .455 1.078.457 19.85.527 20.717.078 19.745.131 21.956-1.21 1.573-.954 2.277-2.164 2.724-4.68.58-3.269 1.287-7.128 1.867-10.192A968.544 968.544 0 0 0 73.02 57.77c.194-1.102.594-3.286.888-4.853a1124.67 1124.67 0 0 0 1.903-10.34c.216-1.218.823-4.856 1.003-5.669 0 0 .603-3.636.62-4.142.041-1.27.317-1.592-.38-3.15-.594-1.051-2.816-2.681-9.152-1.33-6.837 1.853-8.39 4.923-23.425 5.93-23.043 0-24.483-5.958-25.492-5.637Z" clip-rule="evenodd" opacity=".5"/><defs><linearGradient id="a" x1="77.249" x2="68.278" y1="97.278" y2="20.699" gradientUnits="userSpaceOnUse"><stop stop-color="#41C6FF"/><stop offset="1" stop-color="#1A64FC"/></linearGradient></defs></svg>